<svg width="574" height="105" viewBox="0 0 574 105" fill="none" xmlns="http://www.w3.org/2000/svg">
<path d="M0.894043 11.8465C6.86345 11.8152 12.8328 11.79 18.8023 11.7751C21.5749 11.7679 24.3475 11.7582 27.1202 11.7425C29.8022 11.7274 32.4842 11.7192 35.1662 11.7157C36.1831 11.7132 37.1999 11.7082 38.2167 11.7007C45.6358 11.6481 53.1345 11.808 60.1537 14.5184C60.6346 14.6982 60.6346 14.6982 61.1253 14.8817C69.5078 18.1014 75.9391 23.8321 79.8141 31.9969C83.0466 39.9565 83.0189 49.3707 80.0619 57.4139C76.2473 66.1497 69.8287 71.6405 61.1016 75.282C55.3666 77.2714 49.378 78.1599 43.328 78.2304C42.8999 78.2385 42.4718 78.2466 42.0307 78.255C40.4596 78.2836 38.8885 78.3051 37.3173 78.3274C33.791 78.3843 30.2648 78.4411 26.6316 78.4998C26.48 86.0844 26.3283 93.6691 26.172 101.484C17.8303 101.484 9.48856 101.484 0.894043 101.484C0.894043 87.2244 0.894043 72.9652 0.894043 58.274C21.7197 58.1016 21.7197 58.1016 28.2695 58.0542C30.2251 58.0358 30.2251 58.0358 32.1807 58.0163C33.0445 58.0083 33.9083 58.0019 34.7722 57.9969C44.8964 58.2327 44.8964 58.2327 53.4608 53.5048C55.8896 49.5806 56.5138 45.7605 55.6151 41.2084C54.7712 38.294 53.3925 36.2328 50.9904 34.3707C47.0342 32.327 42.8894 32.0085 38.5131 31.978C38.1047 31.9734 37.6963 31.9689 37.2755 31.9642C35.9352 31.9497 34.5949 31.9383 33.2545 31.9269C32.3214 31.9174 31.3883 31.9078 30.4552 31.898C28.0065 31.8727 25.5577 31.8499 23.1089 31.8277C20.1669 31.8005 17.225 31.7701 14.283 31.7402C9.82005 31.6953 5.35705 31.6543 0.894043 31.6127C0.894043 25.0898 0.894043 18.567 0.894043 11.8465Z" fill="white"/>
<path d="M308.46 11.8467C326.292 10.3322 326.292 10.3322 330.604 12.6237C332.724 14.7129 333.652 17.327 334.591 20.1042C335.484 22.4769 336.883 24.518 338.248 26.6425C338.791 27.5317 339.332 28.4224 339.87 29.3144C341.616 32.1846 343.378 35.0449 345.142 37.9046C348.112 42.7241 351.058 47.5581 353.99 52.401C356.11 55.9004 358.246 59.389 360.394 62.8708C361.771 61.6569 362.586 60.2308 363.511 58.6565C363.679 58.3719 363.848 58.0872 364.021 57.7939C364.576 56.8537 365.128 55.9119 365.68 54.9701C366.068 54.3117 366.456 53.6533 366.845 52.9951C367.656 51.6206 368.466 50.2455 369.275 48.87C371.044 45.8659 372.825 42.8688 374.605 39.8716C375.141 38.9692 375.677 38.0664 376.212 37.1636C379.778 31.1522 383.375 25.1597 386.999 19.1833C387.347 18.6095 387.695 18.0355 388.042 17.4613C388.554 16.6153 389.066 15.7697 389.579 14.9243C389.878 14.4314 390.176 13.9385 390.484 13.4306C391.188 12.3063 391.188 12.3063 391.647 11.8467C392.282 11.804 392.919 11.7927 393.556 11.7945C393.961 11.7945 394.365 11.7945 394.783 11.7946C395.223 11.7969 395.662 11.7993 396.116 11.8018C396.788 11.8027 396.788 11.8027 397.474 11.8037C398.912 11.8063 400.349 11.8121 401.787 11.8179C402.759 11.8202 403.732 11.8223 404.704 11.8242C407.092 11.8293 409.481 11.837 411.87 11.8467C409.859 15.9077 407.833 19.9491 405.636 23.9132C403.63 27.5608 401.654 31.2239 399.698 34.8986C396.921 40.1106 394.071 45.2754 391.143 50.4039C390.248 51.9727 389.377 53.552 388.522 55.1425C386.724 58.4519 384.787 61.6772 382.857 64.9107C382.465 65.5693 382.073 66.2279 381.681 66.8866C380.562 68.7666 379.441 70.6455 378.319 72.5241C378.042 72.9882 377.765 73.4523 377.48 73.9305C374.763 78.482 372.021 83.0185 369.271 87.5498C368.989 88.015 368.707 88.4802 368.416 88.9595C368.156 89.3872 367.896 89.815 367.628 90.2558C367.396 90.6378 367.164 91.0198 366.925 91.4134C366.112 92.6972 366.112 92.6972 364.927 93.0063C361.389 93.6617 357.836 94.0905 354.42 92.7499C351.163 89.7697 349.339 85.4656 347.439 81.5468C346.319 79.26 344.966 77.1347 343.59 74.9948C343.113 74.2277 342.636 73.4598 342.161 72.6911C341.918 72.2992 341.675 71.9073 341.424 71.5035C335.307 61.6415 329.502 51.7086 324.02 41.4779C322.646 38.916 321.27 36.3559 319.892 33.7963C319.627 33.304 319.362 32.8117 319.09 32.3044C316.896 28.2314 314.685 24.1677 312.467 20.1083C312.266 19.7398 312.065 19.3713 311.858 18.9916C311.391 18.1402 310.921 17.291 310.447 16.4432C310.194 15.9876 309.941 15.532 309.681 15.0626C309.447 14.6457 309.214 14.2288 308.974 13.7993C308.46 12.766 308.46 12.766 308.46 11.8467Z" fill="white"/>
<path d="M411.87 46.7832C412.021 46.7832 412.173 46.7832 412.329 46.7832C412.766 58.3907 412.848 69.9833 412.82 81.598C412.815 84.2519 412.813 86.9059 412.81 89.5599C412.806 93.5349 412.797 97.5098 412.789 101.485C405.054 101.485 397.319 101.485 389.349 101.485C389.273 99.181 389.198 96.8771 389.119 94.5035C389.086 93.7899 389.053 93.0764 389.018 92.3412C388.941 87.4745 390.155 84.8123 393.026 80.7993C393.505 79.971 393.971 79.1344 394.419 78.2891C394.639 77.8792 394.859 77.4693 395.085 77.0469C395.316 76.6166 395.546 76.1863 395.784 75.7429C396.333 74.7402 396.884 73.7383 397.435 72.737C397.725 72.2104 398.016 71.6838 398.315 71.1412C398.62 70.5874 398.925 70.0336 399.231 69.4798C399.388 69.1939 399.546 68.9081 399.708 68.6136C402.747 63.1036 405.817 57.6113 408.897 52.1243C409.893 50.3466 410.882 48.5654 411.87 46.7832Z" fill="white"/>
<path d="M308 48.1621C308.303 48.1621 308.607 48.1621 308.919 48.1621C309.069 48.4409 309.219 48.7198 309.373 49.0071C312.629 55.0648 315.941 61.0862 319.337 67.0663C320.407 68.9498 321.471 70.8365 322.529 72.7261C322.806 73.2199 323.083 73.7138 323.369 74.2225C323.921 75.2119 324.469 76.2032 325.014 77.1965C326.145 79.2486 327.263 81.2595 328.628 83.1658C332.605 88.8929 331.735 94.6553 331.44 101.485C323.705 101.485 315.969 101.485 308 101.485C308 83.8882 308 66.2918 308 48.1621Z" fill="white"/>
<path d="M127.624 104.152C120.029 104.152 113.288 102.616 107.4 99.5439C101.512 96.4719 96.8614 92.2479 93.4481 86.8719C90.1201 81.4106 88.4561 75.1812 88.4561 68.1839C88.4561 61.1866 90.1201 54.9999 93.4481 49.6239C96.8614 44.2479 101.512 40.0666 107.4 37.0799C113.288 34.0079 120.029 32.4719 127.624 32.4719C135.219 32.4719 141.96 34.0079 147.848 37.0799C153.821 40.0666 158.472 44.2479 161.8 49.6239C165.128 54.9999 166.792 61.1866 166.792 68.1839C166.792 75.1812 165.128 81.4106 161.8 86.8719C158.472 92.2479 153.821 96.4719 147.848 99.5439C141.96 102.616 135.219 104.152 127.624 104.152ZM127.624 84.8239C130.44 84.8239 132.915 84.1839 135.048 82.9039C137.267 81.6239 139.016 79.7466 140.296 77.2719C141.576 74.7119 142.216 71.6826 142.216 68.1839C142.216 64.6852 141.576 61.7412 140.296 59.3519C139.016 56.8772 137.267 54.9999 135.048 53.7199C132.915 52.4399 130.44 51.7999 127.624 51.7999C124.893 51.7999 122.419 52.4399 120.2 53.7199C118.067 54.9999 116.317 56.8772 114.952 59.3519C113.672 61.7412 113.032 64.6852 113.032 68.1839C113.032 71.6826 113.672 74.7119 114.952 77.2719C116.317 79.7466 118.067 81.6239 120.2 82.9039C122.419 84.1839 124.893 84.8239 127.624 84.8239Z" fill="white"/>
<path d="M203.274 104.152C197.386 104.152 191.626 103.469 185.994 102.104C180.447 100.739 175.967 99.0319 172.554 96.9839L179.85 80.3439C183.093 82.3066 186.89 83.8852 191.242 85.0799C195.594 86.1892 199.861 86.7439 204.042 86.7439C208.138 86.7439 210.954 86.3172 212.49 85.4639C214.111 84.6106 214.922 83.4586 214.922 82.0079C214.922 80.6426 214.154 79.6612 212.618 79.0639C211.167 78.3812 209.205 77.8692 206.73 77.5279C204.341 77.1866 201.695 76.8026 198.794 76.3759C195.893 75.9492 192.949 75.3946 189.962 74.7119C187.061 73.9439 184.373 72.8346 181.898 71.3839C179.509 69.8479 177.589 67.7999 176.138 65.2399C174.687 62.6799 173.962 59.4372 173.962 55.5119C173.962 51.0746 175.242 47.1492 177.802 43.7359C180.447 40.2372 184.287 37.5066 189.322 35.5439C194.357 33.4959 200.501 32.4719 207.754 32.4719C212.618 32.4719 217.525 32.9839 222.474 34.0079C227.509 34.9466 231.733 36.3972 235.146 38.3599L227.85 54.8719C224.437 52.9092 221.023 51.5866 217.61 50.9039C214.197 50.1359 210.954 49.7519 207.882 49.7519C203.786 49.7519 200.885 50.2212 199.178 51.1599C197.557 52.0986 196.746 53.2506 196.746 54.6159C196.746 55.9812 197.471 57.0479 198.922 57.8159C200.373 58.4986 202.293 59.0532 204.682 59.4799C207.157 59.8212 209.845 60.2052 212.746 60.6319C215.647 60.9732 218.549 61.5279 221.45 62.2959C224.437 63.0639 227.125 64.2159 229.514 65.7519C231.989 67.2026 233.951 69.2079 235.402 71.7679C236.853 74.2426 237.578 77.4426 237.578 81.3679C237.578 85.6346 236.255 89.4746 233.61 92.8879C231.05 96.3012 227.21 99.0319 222.09 101.08C217.055 103.128 210.783 104.152 203.274 104.152Z" fill="white"/>
<path d="M279.034 104.152C270.159 104.152 263.247 101.976 258.298 97.6239C253.349 93.1866 250.874 86.5306 250.874 77.6559V18.1359H275.194V77.3999C275.194 79.8746 275.877 81.8372 277.242 83.2879C278.607 84.6532 280.357 85.3359 282.49 85.3359C285.391 85.3359 287.866 84.6106 289.914 83.1599L295.93 100.184C293.882 101.549 291.365 102.531 288.378 103.128C285.391 103.811 282.277 104.152 279.034 104.152ZM240.762 54.3599V36.1839H291.066V54.3599H240.762Z" fill="white"/>
<path d="M471.476 103V90.0719L469.812 86.8719V63.0639C469.812 59.2239 468.618 56.2799 466.228 54.2319C463.924 52.0986 460.212 51.0319 455.092 51.0319C451.764 51.0319 448.394 51.5866 444.98 52.6959C441.567 53.7199 438.666 55.1706 436.276 57.0479L428.084 40.5359C432.01 37.9759 436.703 36.0132 442.164 34.6479C447.711 33.1972 453.215 32.4719 458.676 32.4719C469.94 32.4719 478.644 35.0746 484.788 40.2799C491.018 45.3999 494.132 53.4639 494.132 64.4719V103H471.476ZM450.996 104.152C445.45 104.152 440.756 103.213 436.916 101.336C433.076 99.4586 430.132 96.8986 428.084 93.6559C426.122 90.4132 425.14 86.7866 425.14 82.7759C425.14 78.5092 426.207 74.8399 428.34 71.7679C430.559 68.6106 433.93 66.2212 438.452 64.5999C442.975 62.8932 448.82 62.0399 455.988 62.0399H472.372V74.7119H459.316C455.391 74.7119 452.618 75.3519 450.996 76.6319C449.46 77.9119 448.692 79.6186 448.692 81.7519C448.692 83.8852 449.503 85.5919 451.124 86.8719C452.746 88.1519 454.964 88.7919 457.78 88.7919C460.426 88.7919 462.815 88.1519 464.948 86.8719C467.167 85.5066 468.788 83.4586 469.812 80.7279L473.14 89.6879C471.86 94.4666 469.343 98.0932 465.588 100.568C461.919 102.957 457.055 104.152 450.996 104.152Z" fill="white"/>
<path d="M509.483 103V33.6239H533.803V103H509.483ZM521.643 25.9439C517.206 25.9439 513.622 24.7066 510.891 22.2319C508.161 19.7572 506.795 16.6852 506.795 13.0159C506.795 9.34655 508.161 6.27455 510.891 3.79989C513.622 1.32522 517.206 0.0878906 521.643 0.0878906C526.081 0.0878906 529.665 1.28256 532.395 3.67189C535.126 5.97589 536.491 8.96256 536.491 12.6319C536.491 16.4719 535.126 19.6719 532.395 22.2319C529.75 24.7066 526.166 25.9439 521.643 25.9439Z" fill="white"/>
<path d="M549.608 103V8.02389H573.928V103H549.608Z" fill="white"/>
</svg>
