<?xml version="1.0" encoding="UTF-8"?>
<svg version="1.1" xmlns="http://www.w3.org/2000/svg" width="1349" height="248">
<path d="M0 0 C6.20799166 4.91279916 8.85966424 11.23893988 9.96875 18.94921875 C10.41292854 26.91111912 8.12515557 33.57959525 3.125 39.75 C-2.66250153 46.12806291 -9.57442454 49.53834936 -18.16796875 50.1328125 C-28.97174496 50.55100126 -37.45784815 49.45058731 -46.1875 42.625 C-52.45180786 36.61482227 -55.14220587 30.42179988 -55.5 21.75 C-55.14334009 13.10569009 -52.44995917 6.90911664 -46.25 0.875 C-32.82972563 -9.67662836 -14.05762069 -8.88008159 0 0 Z " fill="#192442" transform="translate(389.875,18.25)"/>
<path d="M0 0 C4.75563521 4.20221809 7.71684445 9.64299934 8.25390625 15.97265625 C8.50480785 25.45866693 7.58999313 32.34788772 1.25390625 39.7734375 C-5.93723859 46.78702321 -14.26049775 49.10136213 -24.14453125 49.1875 C-33.65405746 49.0486018 -41.65469393 47.02279354 -48.61328125 40.18359375 C-55.25612883 32.90576809 -56.60536496 26.90063146 -56.3671875 17.125 C-55.89436699 12.53492226 -54.69650623 9.46430279 -52.01953125 5.75 C-51.60703125 5.13640625 -51.19453125 4.5228125 -50.76953125 3.890625 C-39.04725103 -11.69467939 -14.64226689 -10.36620665 0 0 Z " fill="#192442" transform="translate(1241.01953125,19.25)"/>
<path d="M0 0 C17.49 0 34.98 0 53 0 C53 68.31 53 136.62 53 207 C35.51 207 18.02 207 0 207 C0 138.69 0 70.38 0 0 Z " fill="#192442" transform="translate(1278,29)"/>
<path d="M0 0 C12.98826952 -0.06811663 25.97641795 -0.12301135 38.96482658 -0.15543652 C44.99761534 -0.17100877 51.03027423 -0.19209063 57.06298828 -0.22631836 C62.89855325 -0.25921558 68.73399429 -0.27691625 74.56964493 -0.28463173 C76.78207471 -0.29012126 78.99449868 -0.30083868 81.20687485 -0.31719017 C97.3493931 -0.43161659 113.66522025 -0.08384825 128.9375 5.8125 C129.98393677 6.20369019 129.98393677 6.20369019 131.05151367 6.6027832 C149.29030876 13.60700325 163.28351223 26.07393242 171.71484375 43.8359375 C178.74795716 61.15150547 178.68781928 81.63151177 172.25390625 99.12890625 C163.95402932 118.13329734 149.98842956 130.07807557 131 138 C118.52176268 142.32780536 105.49167497 144.26069442 92.328125 144.4140625 C91.39661621 144.43170654 90.46510742 144.44935059 89.50537109 144.4675293 C86.0870767 144.5297156 82.66851605 144.57650552 79.25 144.625 C71.5775 144.74875 63.905 144.8725 56 145 C55.67 161.5 55.34 178 55 195 C36.85 195 18.7 195 0 195 C0 163.98 0 132.96 0 101 C45.3125 100.625 45.3125 100.625 59.5637207 100.52197266 C63.81869982 100.48201601 63.81869982 100.48201601 68.07365417 100.43954468 C69.95314146 100.42198282 71.83266577 100.40812439 73.71220398 100.39730835 C95.74070235 100.91016592 95.74070235 100.91016592 114.375 90.625 C119.65974435 82.08810528 121.01782595 73.77777982 119.0625 63.875 C117.22633413 57.53487569 114.22646019 53.0507212 109 49 C100.39213761 44.55404525 91.37383781 43.8610461 81.85180664 43.79467773 C80.96320953 43.78477814 80.07461243 43.77487854 79.15908813 43.76467896 C76.24280395 43.73327129 73.32650351 43.70838911 70.41015625 43.68359375 C68.37991428 43.66300629 66.34967643 43.64200936 64.31944275 43.62062073 C58.99139754 43.56558511 53.66331485 43.51609462 48.33520508 43.46777344 C41.93403803 43.40856085 35.53293909 43.34243528 29.13182831 43.27747345 C19.42126068 43.17969702 9.71064815 43.09068159 0 43 C0 28.81 0 14.62 0 0 Z " fill="#192442" transform="translate(15,41)"/>
<path d="M0 0 C38.79906792 -3.29460203 38.79906792 -3.29460203 48.18164062 1.69042969 C52.79391642 6.23541764 54.81432605 11.92219672 56.85644531 17.96386719 C58.8005802 23.12553701 61.84251693 27.56564982 64.8125 32.1875 C65.99465682 34.12190861 67.17167428 36.05946659 68.34375 38 C72.14266252 44.24400092 75.97627995 50.46637427 79.8125 56.6875 C86.27615997 67.17188673 92.68539069 77.68811675 99.06567383 88.22338867 C103.67755561 95.83617947 108.32578222 103.42537415 113 111 C115.99444309 108.35903541 117.76729069 105.25679564 119.78125 101.83203125 C120.14723297 101.21272736 120.51321594 100.59342346 120.89028931 99.95535278 C122.09769241 97.91015978 123.29877643 95.86132751 124.5 93.8125 C125.34440903 92.38000649 126.18930585 90.94780041 127.03466797 89.51586914 C128.79943523 86.52569699 130.56206775 83.53428177 132.32324219 80.54199219 C136.17182507 74.00685422 140.04563241 67.48670855 143.91967773 60.96664429 C145.08588043 59.00335728 146.25110027 57.03949052 147.41601562 55.07543945 C155.17475167 41.99794099 163.00124801 28.96162491 170.88720703 15.96044922 C171.64403076 14.71213839 172.40019107 13.46342515 173.15576172 12.21435547 C174.26912835 10.37383452 175.3843356 8.53444128 176.5 6.6953125 C177.1496875 5.62297363 177.799375 4.55063477 178.46875 3.44580078 C180 1 180 1 181 0 C182.38160115 -0.0927833 183.76788038 -0.11747043 185.15258789 -0.11352539 C186.03342545 -0.11344986 186.914263 -0.11337433 187.8217926 -0.11329651 C188.77907761 -0.10813522 189.73636261 -0.10297394 190.72265625 -0.09765625 C192.18547279 -0.09553383 192.18547279 -0.09553383 193.67784119 -0.09336853 C196.80609143 -0.08775133 199.93427123 -0.07519593 203.0625 -0.0625 C205.17773334 -0.05748722 207.29296781 -0.05292393 209.40820312 -0.04882812 C214.60549296 -0.03777631 219.80274145 -0.02102146 225 0 C220.62599998 8.83455949 216.21804665 17.62642072 211.4375 26.25 C207.07139464 34.18522884 202.7732139 42.15410359 198.51586914 50.14810181 C192.47496329 61.48640253 186.27323212 72.72225598 179.90234375 83.87890625 C177.95478728 87.29167134 176.06112701 90.72733635 174.19921875 94.1875 C170.28823877 101.38692687 166.07295481 108.40319824 161.875 115.4375 C161.02176571 116.87028656 160.16865827 118.30314866 159.31567383 119.73608398 C156.88011846 123.82585082 154.44048917 127.91317605 152 132 C151.39752441 133.0096582 150.79504883 134.01931641 150.17431641 135.05957031 C144.26272578 144.96116737 138.2971241 154.82989225 132.3125 164.6875 C131.69914795 165.69949463 131.0857959 166.71148926 130.45385742 167.75415039 C129.88771729 168.68477295 129.32157715 169.61539551 128.73828125 170.57421875 C128.23337158 171.40526123 127.72846191 172.23630371 127.20825195 173.0925293 C125.43912376 175.88545687 125.43912376 175.88545687 122.86132812 176.55786133 C115.1641196 177.98349165 107.43257097 178.9165208 100 176 C92.91354415 169.51675838 88.94648857 160.15340915 84.81103516 151.62841797 C82.37480899 146.65363863 79.4296865 142.03002485 76.4375 137.375 C75.3981908 135.70619919 74.36177428 134.03559369 73.328125 132.36328125 C72.79896484 131.51072754 72.26980469 130.65817383 71.72460938 129.77978516 C58.41419943 108.32560514 45.78386121 86.71726724 33.85546875 64.4609375 C30.86752681 58.88763947 27.87205708 53.31840056 24.875 47.75 C24.29862793 46.67903076 23.72225586 45.60806152 23.12841797 44.50463867 C18.3555953 35.64400049 13.54594272 26.80377271 8.71875 17.97265625 C8.28175781 17.17102051 7.84476563 16.36938477 7.39453125 15.54345703 C6.37894451 13.69114914 5.3542681 11.84381627 4.32421875 9.99951172 C3.77378906 9.00838379 3.22335937 8.01725586 2.65625 6.99609375 C2.14900391 6.08915771 1.64175781 5.18222168 1.11914062 4.24780273 C0 2 0 2 0 0 Z " fill="#192442" transform="translate(751,41)"/>
<path d="M0 0 C7.38732675 -0.02290249 14.77453132 -0.04283157 22.16186523 -0.05493164 C24.67716895 -0.05997363 27.19246972 -0.06680703 29.70776367 -0.07543945 C33.31429775 -0.08751094 36.92079323 -0.09322949 40.52734375 -0.09765625 C42.22575661 -0.10539818 42.22575661 -0.10539818 43.95848083 -0.11329651 C45.51998619 -0.11340981 45.51998619 -0.11340981 47.11303711 -0.11352539 C48.03459091 -0.115746 48.95614471 -0.11796661 49.90562439 -0.12025452 C52 0 52 0 53 1 C53.08865208 3.8843382 53.11521296 6.74462158 53.09765625 9.62890625 C53.0962413 10.49313705 53.09482635 11.35736786 53.09336853 12.24778748 C53.08775239 15.01939292 53.07519719 17.7909188 53.0625 20.5625 C53.05748708 22.4368478 53.05292381 24.31119685 53.04882812 26.18554688 C53.03862681 30.79042021 53.01905467 35.3951206 53 40 C64.22 40 75.44 40 87 40 C87 52.87 87 65.74 87 79 C75.78 79 64.56 79 53 79 C53.04669289 86.30510237 53.09716612 93.6084791 53.18379211 100.91294098 C53.22306151 104.31494629 53.25549326 107.7166928 53.27099609 111.11889648 C53.28913418 115.02881684 53.33912164 118.93802756 53.390625 122.84765625 C53.39185364 124.05833267 53.39308228 125.26900909 53.39434814 126.51637268 C53.50955702 133.18080588 53.86469946 137.6536738 58 143 C65.32544495 147.36709218 71.62104399 146.44427822 79.5 144.5 C81.33582686 144.00923441 83.17008682 143.51237569 85 143 C88.32978224 150.15252428 91.12316915 157.46093491 93.8125 164.875 C94.23208984 166.00164062 94.65167969 167.12828125 95.08398438 168.2890625 C95.47521484 169.36671875 95.86644531 170.444375 96.26953125 171.5546875 C96.62635986 172.52905762 96.98318848 173.50342773 97.35083008 174.50732422 C98 177 98 177 97 180 C86.05368148 186.59998616 70.60842168 188.98085317 58 188 C57.3704541 187.96277832 56.7409082 187.92555664 56.09228516 187.88720703 C41.00824021 186.94553215 26.20461614 183.90304262 15 173 C14.36707031 172.39414063 13.73414063 171.78828125 13.08203125 171.1640625 C1.50710419 159.07085512 -0.43091761 142.41062291 -0.51171875 126.38671875 C-0.52861895 125.03764778 -0.54677607 123.68859203 -0.56611633 122.33955383 C-0.61304449 118.83644377 -0.64321947 115.33339539 -0.66955566 111.83007812 C-0.69965477 108.23620408 -0.74608176 104.64254188 -0.79101562 101.04882812 C-0.87639533 94.03266124 -0.94251147 87.01645908 -1 80 C-7.93 79.67 -14.86 79.34 -22 79 C-22 66.13 -22 53.26 -22 40 C-11.605 39.505 -11.605 39.505 -1 39 C-0.67 26.13 -0.34 13.26 0 0 Z " fill="#192442" transform="translate(629,51)"/>
<path d="M0 0 C12.70050001 10.87239774 18.60807919 24.56489999 21.140625 40.89453125 C21.38852597 44.33750478 21.39527199 47.75878684 21.36767578 51.20947266 C21.36796783 52.18628998 21.36825989 53.1631073 21.36856079 54.16952515 C21.36718007 57.36180866 21.35167866 60.55385158 21.3359375 63.74609375 C21.33220289 65.97382479 21.32935804 68.20155749 21.32736206 70.42929077 C21.31976088 76.26536673 21.30014283 82.10134163 21.2779541 87.93737793 C21.25380321 94.95428886 21.24469795 101.97123376 21.23304749 108.98817444 C21.21371623 119.62369679 21.17536903 130.25899781 21.140625 140.89453125 C3.650625 140.89453125 -13.839375 140.89453125 -31.859375 140.89453125 C-31.88515625 134.66964844 -31.9109375 128.44476563 -31.9375 122.03125 C-31.96268758 118.07092324 -31.98903523 114.1106714 -32.01953125 110.15039062 C-32.06775083 103.87426539 -32.11183886 97.59831375 -32.13037109 91.32202148 C-32.14559423 86.25786007 -32.18013969 81.19415497 -32.22768402 76.13019753 C-32.24243967 74.20510656 -32.25041265 72.27995042 -32.25125885 70.35480309 C-31.77415251 54.08807451 -31.77415251 54.08807451 -38.63824463 39.9172821 C-44.12592109 34.86284582 -49.46923162 33.01550086 -56.859375 32.89453125 C-65.04282904 33.38423262 -71.84063364 35.11415589 -77.859375 40.89453125 C-84.38858774 49.16486739 -86.14746941 58.02968337 -86.17822266 68.35180664 C-86.19329109 69.53883682 -86.19329109 69.53883682 -86.20866394 70.74984741 C-86.23922353 73.33062094 -86.25645429 75.9112921 -86.2734375 78.4921875 C-86.29217113 80.29537317 -86.31174614 82.09855028 -86.3321228 83.90171814 C-86.38321827 88.62143887 -86.42296416 93.34118795 -86.46026611 98.06103516 C-86.50752711 103.73809799 -86.56902724 109.41502264 -86.62811279 115.09197235 C-86.71604937 123.69276884 -86.78601079 132.29354255 -86.859375 140.89453125 C-104.349375 140.89453125 -121.839375 140.89453125 -139.859375 140.89453125 C-139.859375 91.06453125 -139.859375 41.23453125 -139.859375 -10.10546875 C-123.359375 -10.10546875 -106.859375 -10.10546875 -89.859375 -10.10546875 C-87.91846674 -8.16456049 -88.46018065 -4.63252973 -88.296875 -2.04296875 C-88.21308594 -0.75261719 -88.12929688 0.53773437 -88.04296875 1.8671875 C-87.98238281 2.86621094 -87.92179687 3.86523438 -87.859375 4.89453125 C-87.00279297 4.13269531 -87.00279297 4.13269531 -86.12890625 3.35546875 C-62.46110446 -16.73770479 -25.20075774 -18.55629566 0 0 Z " fill="#192442" transform="translate(567.859375,95.10546875)"/>
<path d="M0 0 C1.18335938 1.01513672 1.18335938 1.01513672 2.390625 2.05078125 C3.11765625 2.65535156 3.8446875 3.25992188 4.59375 3.8828125 C18.55349425 16.53716082 21.4719181 35.18182198 22.390625 53.05078125 C22.55652758 59.67035237 22.5077404 66.29302785 22.48828125 72.9140625 C22.48641199 74.80120303 22.48499049 76.68834404 22.48399353 78.57548523 C22.4802083 83.49906802 22.47041298 88.42262046 22.45928955 93.34619141 C22.44717187 99.27689741 22.44265414 105.20761366 22.43683624 111.13832855 C22.4271984 120.10916711 22.4080141 129.07993931 22.390625 138.05078125 C5.890625 138.05078125 -10.609375 138.05078125 -27.609375 138.05078125 C-27.939375 132.44078125 -28.269375 126.83078125 -28.609375 121.05078125 C-29.57875 122.41203125 -30.548125 123.77328125 -31.546875 125.17578125 C-39.00688552 134.66086449 -48.74614678 138.6426048 -60.53515625 140.515625 C-63.23176899 140.79405885 -65.90041949 140.95722873 -68.609375 141.05078125 C-69.40601563 141.09074219 -70.20265625 141.13070312 -71.0234375 141.171875 C-87.39376916 141.62512523 -102.66950123 137.26751723 -115.609375 127.05078125 C-121.45804391 121.21194204 -125.16540339 114.92119829 -127.609375 107.05078125 C-127.80144531 106.46296875 -127.99351562 105.87515625 -128.19140625 105.26953125 C-130.42694253 93.40238537 -129.07706145 81.10609551 -122.546875 70.92578125 C-112.56956092 57.62965349 -98.56123008 52.6003218 -82.609375 50.05078125 C-75.94311168 49.22392802 -69.37712863 48.91213168 -62.6640625 48.953125 C-61.76817413 48.95453995 -60.87228577 48.9559549 -59.94924927 48.95741272 C-57.12758847 48.96294684 -54.30601124 48.97548636 -51.484375 48.98828125 C-49.55468866 48.99330479 -47.62500105 48.99786619 -45.6953125 49.00195312 C-40.9999685 49.01289456 -36.30468585 49.03011247 -31.609375 49.05078125 C-31.89840749 47.6184563 -32.19556943 46.18777043 -32.49609375 44.7578125 C-32.66069092 43.96093018 -32.82528809 43.16404785 -32.99487305 42.34301758 C-34.47391686 36.82583747 -37.98121547 33.17209814 -42.609375 30.05078125 C-57.13996553 22.91758226 -73.49772598 25.40895564 -88.33935547 30.22851562 C-94.03261993 32.29077791 -99.34624017 35.07148633 -104.609375 38.05078125 C-107.96176835 31.72738634 -111.29222015 25.39272735 -114.609375 19.05078125 C-114.9923877 18.32165527 -115.37540039 17.5925293 -115.77001953 16.84130859 C-116.76714501 14.93645509 -117.75285617 13.02621212 -118.734375 11.11328125 C-119.57355469 9.49099609 -119.57355469 9.49099609 -120.4296875 7.8359375 C-121.609375 5.05078125 -121.609375 5.05078125 -121.609375 1.05078125 C-110.53689634 -4.5339608 -99.69144481 -9.07690913 -87.609375 -11.94921875 C-86.9395459 -12.11292969 -86.2697168 -12.27664062 -85.57958984 -12.4453125 C-58.39616645 -18.802779 -22.7974617 -18.12193437 0 0 Z M-74.859375 83.17578125 C-77.23844101 87.08424683 -77.80267184 90.50025154 -77.609375 95.05078125 C-76.00653148 99.95359673 -73.20392292 103.63593028 -68.609375 106.05078125 C-59.9636675 108.71780506 -51.34025712 108.77807508 -43.09765625 104.85546875 C-36.71922992 100.99678439 -32.95822782 96.09733971 -30.609375 89.05078125 C-30.51539457 87.01085317 -30.47945431 84.96786711 -30.484375 82.92578125 C-30.48179688 81.85070312 -30.47921875 80.775625 -30.4765625 79.66796875 C-30.31248525 77.12421729 -30.31248525 77.12421729 -31.609375 76.05078125 C-35.560712 75.79383638 -39.52570126 75.8655305 -43.484375 75.86328125 C-45.12792969 75.84491211 -45.12792969 75.84491211 -46.8046875 75.82617188 C-57.00607886 75.80804144 -67.12770224 75.87364587 -74.859375 83.17578125 Z " fill="#192442" transform="translate(1134.609375,97.94921875)"/>
<path d="M0 0 C1.08611572 0.00281982 2.17223145 0.00563965 3.29125977 0.00854492 C4.53734009 0.01398315 4.53734009 0.01398315 5.80859375 0.01953125 C5.83386377 6.55231911 5.85142667 13.08509446 5.86352539 19.61791992 C5.86856692 21.84220857 5.87539998 24.06649388 5.8840332 26.29077148 C5.89610673 29.48031434 5.90182371 32.66981354 5.90625 35.859375 C5.91141129 36.86040756 5.91657257 37.86144012 5.92189026 38.89280701 C5.92196579 39.81368607 5.92204132 40.73456512 5.92211914 41.68334961 C5.92433975 42.49831406 5.92656036 43.3132785 5.92884827 44.15293884 C5.80859375 46.01953125 5.80859375 46.01953125 4.80859375 47.01953125 C3.07943152 47.04072939 1.34958828 47.00954826 -0.37890625 46.95703125 C-12.20218312 46.90079688 -23.98993701 47.77280225 -33.25390625 55.80859375 C-37.59705849 60.35080713 -39.7722488 64.93898739 -41.19140625 71.01953125 C-41.44826454 72.08810616 -41.44826454 72.08810616 -41.71031189 73.17826843 C-42.30284831 76.67768941 -42.36771961 80.11711663 -42.39672852 83.65551758 C-42.40662811 84.40727264 -42.41652771 85.15902771 -42.42672729 85.93356323 C-42.45819057 88.40619816 -42.48303939 90.87885226 -42.5078125 93.3515625 C-42.52839515 95.07078029 -42.54939196 96.78999316 -42.57078552 98.50920105 C-42.62587085 103.02513643 -42.67533962 107.54111646 -42.72363281 112.05712891 C-42.7827995 117.48042412 -42.84895271 122.90363808 -42.9139328 128.32686615 C-43.01177189 136.55770472 -43.10074444 144.7885964 -43.19140625 153.01953125 C-60.68140625 153.01953125 -78.17140625 153.01953125 -96.19140625 153.01953125 C-96.19140625 103.18953125 -96.19140625 53.35953125 -96.19140625 2.01953125 C-79.69140625 2.01953125 -63.19140625 2.01953125 -46.19140625 2.01953125 C-44.19524071 4.01569679 -44.78157198 7.83655088 -44.62890625 10.58203125 C-44.58572266 11.29294922 -44.54253906 12.00386719 -44.49804688 12.73632812 C-44.39168848 14.49715037 -44.29101779 16.25831445 -44.19140625 18.01953125 C-43.6809375 17.51164062 -43.17046875 17.00375 -42.64453125 16.48046875 C-33.80510297 8.11122283 -24.01238464 3.62053471 -12.19140625 1.01953125 C-11.22203125 0.79265625 -10.25265625 0.56578125 -9.25390625 0.33203125 C-6.14012822 0.0142988 -3.12912254 -0.0105216 0 0 Z " fill="#192442" transform="translate(313.19140625,82.98046875)"/>
<path d="M0 0 C17.16 0 34.32 0 52 0 C53 1 53 1 53.12304783 3.46565342 C53.12212604 4.57088321 53.12120424 5.676113 53.12025452 6.81483459 C53.12162918 8.07833237 53.12300385 9.34183014 53.12442017 10.64361572 C53.12088055 12.05676293 53.11724574 13.4699099 53.11352539 14.88305664 C53.11324353 16.36101784 53.11340124 17.83897919 53.1139679 19.31694031 C53.1142559 23.34155828 53.1083587 27.36614672 53.10139394 31.3907578 C53.09516088 35.59216365 53.09455664 39.7935701 53.09336853 43.99497986 C53.09025507 51.95646257 53.08204149 59.91793162 53.07201904 67.8794083 C53.06085836 76.94092589 53.05534757 86.00244412 53.05032361 95.06396687 C53.03985888 113.70932058 53.02151322 132.35465554 53 151 C35.51 151 18.02 151 0 151 C0 101.17 0 51.34 0 0 Z " fill="#192442" transform="translate(341,85)"/>
<path d="M0 0 C17.16 0 34.32 0 52 0 C53 1 53 1 53.12304783 3.46565342 C53.12212604 4.57088321 53.12120424 5.676113 53.12025452 6.81483459 C53.12162918 8.07833237 53.12300385 9.34183014 53.12442017 10.64361572 C53.12088055 12.05676293 53.11724574 13.4699099 53.11352539 14.88305664 C53.11324353 16.36101784 53.11340124 17.83897919 53.1139679 19.31694031 C53.1142559 23.34155828 53.1083587 27.36614672 53.10139394 31.3907578 C53.09516088 35.59216365 53.09455664 39.7935701 53.09336853 43.99497986 C53.09025507 51.95646257 53.08204149 59.91793162 53.07201904 67.8794083 C53.06085836 76.94092589 53.05534757 86.00244412 53.05032361 95.06396687 C53.03985888 113.70932058 53.02151322 132.35465554 53 151 C35.51 151 18.02 151 0 151 C0 101.17 0 51.34 0 0 Z " fill="#192442" transform="translate(1191,85)"/>
<path d="M0 0 C0.33 0 0.66 0 1 0 C1.95027656 25.25139203 2.1285916 50.47028563 2.06866455 75.73736572 C2.05633916 81.5108979 2.05199409 87.28444167 2.04621124 93.0579834 C2.03670649 101.70534515 2.01747335 110.35263427 2 119 C-14.83 119 -31.66 119 -49 119 C-49.165 113.988125 -49.33 108.97625 -49.5 103.8125 C-49.57283203 102.26022705 -49.64566406 100.7079541 -49.72070312 99.10864258 C-49.88767404 88.52147445 -47.24669386 82.7300693 -41 74 C-39.95729174 72.19799031 -38.9449551 70.37794886 -37.96875 68.5390625 C-37.49050781 67.64735352 -37.01226563 66.75564453 -36.51953125 65.83691406 C-36.01808594 64.90073242 -35.51664063 63.96455078 -35 63 C-33.80496745 60.81872992 -32.60687937 58.63913195 -31.40625 56.4609375 C-30.77501221 55.3152832 -30.14377441 54.16962891 -29.4934082 52.98925781 C-28.82900443 51.78446901 -28.16453354 50.57971723 -27.5 49.375 C-27.15705902 48.75314819 -26.81411804 48.13129639 -26.46078491 47.49060059 C-19.84840856 35.50403487 -13.16929861 23.55582461 -6.46728516 11.61914062 C-4.30085567 7.75200992 -2.14852886 3.87709884 0 0 Z " fill="#192442" transform="translate(976,117)"/>
<path d="M0 0 C0.66 0 1.32 0 2 0 C2.32572998 0.60658447 2.65145996 1.21316895 2.98706055 1.83813477 C10.07239606 15.01638918 17.27733748 28.11562381 24.66796875 41.125 C26.99552073 45.22226664 29.30961326 49.32675572 31.61328125 53.4375 C32.2158374 54.51177246 32.81839355 55.58604492 33.43920898 56.69287109 C34.64039313 58.84518838 35.83400755 61.00174882 37.01977539 63.16259766 C39.47912769 67.62673168 41.91346529 72.0013394 44.8828125 76.1484375 C53.5353384 88.60735661 51.64284585 101.14311805 51 116 C34.17 116 17.34 116 0 116 C0 77.72 0 39.44 0 0 Z " fill="#192442" transform="translate(750,120)"/>
</svg>
