<svg xmlns="http://www.w3.org/2000/svg" version="1.1" xmlns:xlink="http://www.w3.org/1999/xlink" xmlns:svgjs="http://svgjs.dev/svgjs" width="105" height="91"><svg width="105" height="91" viewBox="0 0 105 91" fill="none" xmlns="http://www.w3.org/2000/svg">
<path d="M0.459717 1.05369C18.2918 -0.460767 18.2918 -0.460767 22.604 1.83074C24.7238 3.91997 25.6524 6.53405 26.5909 9.31127C27.4844 11.684 28.8825 13.725 30.2475 15.8496C30.7908 16.7388 31.3318 17.6294 31.8705 18.5214C33.6165 21.3917 35.3784 24.2519 37.1415 27.1117C40.1122 31.9311 43.0579 36.7652 45.9903 41.608C48.1099 45.1074 50.2462 48.596 52.3945 52.0779C53.7707 50.8639 54.5855 49.4379 55.5111 47.8636C55.6793 47.5789 55.8476 47.2942 56.0209 47.0009C56.5758 46.0608 57.1278 45.119 57.6799 44.1772C58.068 43.5187 58.4563 42.8603 58.8448 42.2021C59.6559 40.8276 60.466 39.4525 61.2754 38.077C63.0442 35.073 64.8246 32.0758 66.6052 29.0787C67.1411 28.1762 67.6767 27.2735 68.2121 26.3706C71.778 20.3592 75.375 14.3667 78.9994 8.39035C79.3473 7.81653 79.6948 7.24252 80.0421 6.66835C80.5538 5.82231 81.0663 4.97678 81.5791 4.13137C81.8777 3.63844 82.1763 3.14551 82.4839 2.63764C83.1877 1.51336 83.1877 1.51336 83.6473 1.05369C84.2822 1.01104 84.9194 0.999689 85.5558 1.0015C85.9606 1.00154 86.3655 1.00157 86.7826 1.00161C87.2225 1.00398 87.6625 1.00635 88.1158 1.0088C88.7881 1.00977 88.7881 1.00977 89.474 1.01077C90.9117 1.01335 92.3494 1.01912 93.7872 1.02496C94.7593 1.02726 95.7315 1.02936 96.7037 1.03124C99.0923 1.03632 101.481 1.04402 103.87 1.05369C101.859 5.11473 99.8335 9.15616 97.6363 13.1202C95.6297 16.7679 93.6542 20.431 91.6976 24.1056C88.9212 29.3176 86.0708 34.4825 83.1428 39.6109C82.2477 41.1797 81.3774 42.759 80.5216 44.3496C78.7241 47.659 76.7868 50.8842 74.8574 54.1177C74.4653 54.7763 74.0732 55.435 73.6812 56.0937C72.5618 57.9736 71.4405 59.8525 70.3189 61.7311C70.042 62.1952 69.7651 62.6593 69.4798 63.1375C66.7628 67.6891 64.021 72.2255 61.2705 76.7568C60.9886 77.222 60.7067 77.6872 60.4163 78.1665C60.1561 78.5943 59.8959 79.0221 59.6278 79.4628C59.3957 79.8448 59.1637 80.2268 58.9246 80.6204C58.1115 81.9043 58.1115 81.9043 56.9267 82.2134C53.3891 82.8687 49.8357 83.2976 46.4197 81.9569C43.1628 78.9767 41.3395 74.6726 39.4388 70.7539C38.3192 68.4671 36.9656 66.3417 35.5904 64.2019C35.1127 63.4348 34.6364 62.6668 34.1613 61.8981C33.9181 61.5062 33.6749 61.1143 33.4243 60.7105C27.3069 50.8485 21.502 40.9157 16.0197 30.6849C14.6464 28.123 13.2697 25.563 11.8923 23.0033C11.6274 22.511 11.3625 22.0187 11.0895 21.5115C8.89594 17.4384 6.68543 13.3748 4.46685 9.31531C4.26601 8.94682 4.06517 8.57832 3.85824 8.19866C3.39148 7.3472 2.92054 6.49802 2.44713 5.65024C2.19415 5.19464 1.94117 4.73904 1.68053 4.26963C1.4474 3.85274 1.21427 3.43584 0.974073 3.00631C0.459717 1.97304 0.459717 1.97304 0.459717 1.05369Z" fill="#2A7FFF"></path>
<path d="M103.87 35.9902C104.021 35.9902 104.173 35.9902 104.329 35.9902C104.766 47.5977 104.848 59.1903 104.82 70.805C104.815 73.459 104.813 76.1129 104.81 78.7669C104.806 82.7419 104.797 86.7168 104.789 90.6918C97.0538 90.6918 89.3188 90.6918 81.3493 90.6918C81.2735 88.388 81.1976 86.0842 81.1195 83.7105C81.086 82.9969 81.0525 82.2834 81.0181 81.5482C80.9413 76.6816 82.1551 74.0194 85.0261 70.0064C85.5053 69.178 85.9706 68.3414 86.4193 67.4961C86.6391 67.0862 86.8589 66.6763 87.0853 66.254C87.3158 65.8236 87.5462 65.3933 87.7837 64.9499C88.3329 63.9472 88.8836 62.9453 89.4354 61.9441C89.7255 61.4174 90.0156 60.8908 90.3145 60.3482C90.6199 59.7944 90.9253 59.2406 91.2307 58.6868C91.3883 58.401 91.5459 58.1151 91.7083 57.8206C94.7474 52.3106 97.8171 46.8183 100.897 41.3313C101.893 39.5537 102.882 37.7724 103.87 35.9902Z" fill="#2A7FFF"></path>
<path d="M0 37.3691C0.303336 37.3691 0.606672 37.3691 0.919199 37.3691C1.0689 37.648 1.21861 37.9268 1.37285 38.2141C4.62927 44.2718 7.94066 50.2933 11.3374 56.2734C12.4071 58.1568 13.4707 60.0435 14.5295 61.9332C14.8064 62.427 15.0833 62.9208 15.3687 63.4296C15.9207 64.4189 16.4693 65.4103 17.0143 66.4036C18.1446 68.4556 19.2634 70.4665 20.6281 72.3729C24.6048 78.0999 23.735 83.8623 23.4396 90.6917C15.7045 90.6917 7.96946 90.6917 0 90.6917C0 73.0953 0 55.4988 0 37.3691Z" fill="#2A7FFF"></path>
</svg><style>@media (prefers-color-scheme: light) { :root { filter: none; } }
@media (prefers-color-scheme: dark) { :root { filter: contrast(0.3846153846153846) brightness(4.5); } }
</style></svg>